<svg xmlns="http://www.w3.org/2000/svg" viewBox="0 0 840 490" role="img" aria-label="SAWT shorthand whiteboard iteration 3"><rect width="840" height="490" rx="16" fill="#fafaf8"/><rect x="6" y="6" width="828" height="478" rx="12" fill="none" stroke="#bcbcbc" stroke-width="5"/><rect x="12" y="12" width="816" height="466" rx="9" fill="none" stroke="#e5e5e2" stroke-width="2"/><g transform="translate(20 20)"><path d="M102 420L101 421L101 424L100 425L100 433L102 433L102 431L104 429L107 429L108 430L107 431L109 432L109 429L111 427L110 427L108 425L108 423L106 421L106 420ZM105 424L106 426L104 427L103 426ZM83 420L83 431L85 431L85 429L87 427L91 426L92 427L92 431L94 433L95 432L94 431L94 429L95 428L95 421L94 420L92 420L92 422L88 425L87 424L87 422L85 420ZM80 420L79 419L74 419L70 421L67 424L67 425L71 426L72 427L73 426L76 428L72 430L68 430L68 431L76 431L77 430L79 430L80 428L78 426L75 426L71 424L75 421ZM169 422L164 418L163 420L165 422L165 424L163 426L158 425L156 422L147 422L145 423L145 425L149 425L150 426L150 428L155 428L156 427L160 426L161 428L164 429L169 425ZM150 425L151 424L152 425L151 426ZM152 425L155 423L156 423L158 425L157 426L153 426ZM122 418L118 418L117 420L116 419L114 420L114 425L113 426L113 429L115 432L116 432L115 430L117 428L119 428L122 430L125 430L124 430L119 426L123 422L123 419ZM185 417L183 419L183 422L188 426L186 428L184 428L181 430L183 430L185 432L184 434L185 435L185 437L189 437L190 438L192 437L188 435L191 433L187 431L191 429L193 427L193 426L189 424L187 422L187 420L188 419L192 419L192 418L190 417ZM184 431L185 430L186 431L185 432ZM184 420L185 419L186 421L185 422ZM185 419L186 418L187 419L186 420ZM137 417L133 417L129 420L129 423L128 424L130 425L131 433L133 433L132 431L133 430L133 425L137 423L139 421L139 419ZM203 414L196 415L196 417L195 418L195 420L196 421L196 429L199 431L200 431L200 423L201 422L203 422L207 418L207 416ZM397 413L398 414L400 414ZM422 412L420 414L422 413ZM21 412L19 411L17 412ZM332 410L331 411L332 411ZM457 408L458 409L458 408ZM18 408L18 409L20 409L20 408ZM540 405L541 406L543 406L542 405ZM184 405L185 411L187 410L188 412L188 406L187 407L185 405ZM296 404L298 404L299 406L300 406L298 404ZM539 402L543 402L545 403L543 401ZM524 397L526 398L528 397L527 398L526 397ZM82 397L81 396L79 396L76 398L73 398L69 400L66 400L64 401L64 403L69 403L70 402L73 402L74 403L74 409L77 409L77 402L78 400L80 398L82 398ZM147 397L148 398L152 398L153 399L152 400L149 400L149 402L155 402L159 400L159 399L153 399L152 398L153 397L156 397L155 395L149 395ZM83 407L85 408L87 406L88 402L93 405L95 405L91 401L93 397L95 400L100 403L99 406L100 407L102 407L101 406L103 404L105 398L109 402L109 404L111 405L106 407L107 409L110 409L116 406L119 407L120 404L124 405L126 396L123 395L122 398L123 400L121 402L120 399L117 399L117 405L116 406L112 406L111 405L112 404L112 400L114 397L110 397L106 399L105 397L102 397L100 400L97 398L94 398L92 395L90 395L84 399ZM162 394L162 396L164 399L164 400L162 402L166 403L168 400L168 398L165 394ZM130 395L128 397L128 399L127 400L128 404L129 405L132 405L133 406L136 405L137 406L137 409L139 409L139 406L141 403L141 400L140 399L134 399L133 400L134 401L137 401L138 402L138 403L136 405L135 404L134 405L130 402L130 400L133 397L135 397L135 396L133 394ZM173 394L173 395L175 395L176 396L180 395L181 396L182 402L183 401L185 402L185 395L191 392L190 391L185 391L184 392L182 391L181 392L177 392ZM206 396L208 397L212 396L213 398L215 398L215 396L217 394L222 393L221 392L215 392L213 390L211 390L211 392L208 394L206 394ZM194 391L193 393L193 402L195 401L196 403L196 400L197 399L199 399L203 401L207 401L205 401L200 397L202 394L202 392L199 390L196 390ZM555 389L557 390L557 389ZM629 389L630 388L633 388L629 388ZM556 383L556 384L558 384L559 386L559 383ZM396 383L397 385L401 387L399 388L402 391L404 391L409 388L407 386L406 387L401 387L400 386L401 385L406 384L404 382L398 382ZM356 386L358 391L360 392L362 392L363 393L371 393L373 392L373 388L369 383L367 383L366 382L360 382L358 383ZM360 386L361 385L367 384L370 387L370 389L366 391L364 390L363 391L360 389L361 388ZM204 380L201 378L198 378L194 382L194 385L195 386L198 386L197 385L198 383L200 381L202 383L203 382L204 383L205 382ZM452 376L448 375L447 376L441 376L440 377L433 377L432 378L422 379L421 381L423 382L428 382L429 381L432 381L433 380L437 380L438 379L442 379L443 378L448 378ZM547 371L547 372L549 374L550 373L552 373L550 371L550 370L548 370ZM525 366L526 368L526 371L531 371L532 370L534 370L534 369L532 369L531 368L533 366ZM497 364L493 367L493 368L497 371L495 372L495 374L498 374L501 372L500 370L496 368L496 367L498 366ZM131 364L132 366L136 364L138 365L138 375L139 375L139 368L140 367L140 365L141 364L143 364L143 363L133 363ZM509 362L508 362L508 366L507 367L505 367L504 365L502 364L502 367L503 368L503 371L504 372L503 373L504 375L505 375L505 373L506 372L505 371L507 369L508 369L512 374L512 371L511 370L511 365ZM115 362L114 362L114 364L112 368L111 368L107 364L103 363L103 364L111 371L107 388L108 384L110 381L111 376L113 373L115 365L116 364ZM437 361L435 361L433 363L429 365L427 367L427 369L429 370L432 367L433 367L433 366L435 365ZM66 364L67 365L68 364L71 364L72 367L73 366L76 367L75 368L75 375L77 379L76 377L77 366L78 365L81 366L79 372L79 377L79 374L82 366L84 364L89 363L90 364L90 374L91 376L93 376L93 375L92 376L91 375L92 372L96 374L100 380L101 380L99 374L96 371L99 366L98 362L96 362L94 360L91 361L90 363L88 361L80 361L79 362L77 360L76 362L72 362ZM91 367L92 366L93 367L92 368ZM78 364L79 363L80 364L79 365ZM72 364L73 363L75 363L76 364L75 365L73 365ZM193 358L185 359L185 360L188 362L188 366L185 368L186 369L190 369L194 367L192 367L191 366L191 360L193 359ZM551 357L549 357L546 360L546 362L549 365L545 367L545 368L553 366L553 364L549 363L548 362L548 361L550 359L551 359ZM178 357L176 357L175 358L172 370L173 370L175 366L178 364L182 366L182 362ZM176 362L177 361L179 361L180 362L179 363L177 363ZM168 357L164 356L161 358L161 362L159 366L159 371L158 372L156 372L152 369L154 366L154 364L151 362L148 363L147 365L147 374L148 374L148 371L149 370L150 371L153 371L157 373L158 373L159 371L163 373L168 372L168 371L162 371L161 370L161 366L163 362L163 358L164 357L168 358ZM150 365L151 364L152 365L151 366ZM313 355L314 356L314 355ZM197 355L197 356L202 356L204 358L203 360L203 363L205 366L205 368L201 370L202 371L207 371L208 369L207 368L207 365L206 364L206 357L204 355L201 355L200 354ZM406 353L401 353L400 354L397 354L396 355L398 356L401 356L402 355L404 355ZM232 353L227 353L226 354L221 354L219 355L220 356L224 356L225 357L225 361L224 362L225 364L227 364L227 361L228 360L227 357L229 355L233 354ZM236 352L236 357L235 358L235 362L236 363L238 363L238 360L239 359L243 360L245 362L248 363L248 362L243 358L244 355L241 351L239 352ZM550 348L550 349L552 350L551 348ZM393 350L395 352L398 350L403 350L405 349L403 349L402 348L397 348ZM302 349L306 348L303 348ZM295 348L293 350L290 350L288 351L288 352L290 350L293 350L295 349ZM356 347L356 352L355 353L355 360L358 356L360 356L361 355L366 356L366 355L358 347ZM358 352L359 351L360 353L359 354ZM374 345L372 345L372 348L371 349L367 348L366 347L364 348L365 350L369 350L371 352L371 359L370 360L370 362L372 361L372 358L373 357L373 354L374 353L374 349L375 348ZM181 346L181 349L183 349L183 347L184 346L186 347L185 348L186 349L188 348L188 346L186 344L183 344ZM444 343L439 343L438 344L416 344L415 345L411 345L411 347L417 347L418 346L431 346L432 345L441 345ZM480 342L482 343L486 341L486 340L482 340L480 341ZM264 339L265 340L264 341L265 341L266 340ZM236 342L236 345L238 345L239 342L241 341L243 343L243 345L245 346L245 343L242 339L238 339ZM520 336L520 337L522 338L522 341L523 342L529 341L529 340L525 340L524 339L524 338L525 337L527 337L527 336L523 336L522 335ZM498 334L497 335L498 337L497 339L495 337L493 337L491 335L485 335L486 337L488 337L489 338L489 341L490 342L490 345L488 346L488 348L491 348L493 347L493 346L491 344L491 339L492 338L493 339L493 341L495 345L496 344L495 342L496 341L500 343L500 336ZM490 338L491 337L492 338L491 339ZM503 334L502 338L507 342L508 342L507 340L509 339L510 340L510 343L512 347L513 347L513 345L512 344L512 338L511 337L507 337L506 336L507 335L506 333ZM504 337L505 336L507 337L506 338ZM413 331L414 333L416 333L424 337L424 336L421 333L417 331L415 331L414 330ZM263 330L264 331L266 330ZM543 329L544 333L543 334L540 334L539 336L540 337L542 336L544 338L544 340L546 341L547 339L546 337L547 336L551 335L551 334L547 334L545 332L545 329ZM156 327L155 327L152 330L152 331L149 334L149 335L150 335L156 329ZM531 326L530 327L530 329L531 328ZM538 325L540 324L538 324ZM392 323L393 324L395 324L396 323L399 323L402 321L396 321ZM355 319L353 321L353 324L354 326L357 328L361 327L363 325L363 323L360 320ZM356 325L358 322L360 322L361 323L361 324L359 326L357 326ZM436 318L435 317L434 318L408 318L408 320L423 320L424 319L426 320L432 320L433 319L436 319ZM388 320L392 320L393 319L398 318L398 317L392 317L391 318L388 318ZM367 317L366 318L366 321L368 324L370 325L373 325L377 322L377 318L375 316L370 316L369 317ZM370 318L374 318L375 319L375 322L373 324L371 324L368 321L368 320ZM415 309L415 311L426 311L427 310L426 309ZM147 307L147 319L148 320L154 320L158 318L160 316L156 317L155 318L151 318L149 319L148 318L148 311L149 310L149 308ZM147 310L148 309L149 310L148 311ZM134 307L134 309L135 310L136 310L141 314L143 314L140 311L140 310ZM503 304L500 304L496 306L496 307L500 307L502 310L502 312L500 313L499 315L501 315L505 313L507 311L504 311L502 309L502 306ZM186 304L184 304L186 308L185 309L182 308L179 305L179 309L180 310L181 315L182 315L182 311L183 310L187 311L189 313L189 310ZM173 304L167 304L163 306L163 308L165 310L165 313L166 314L166 317L167 318L167 314L169 312L173 311L173 310L168 310L167 309L167 307L168 306L173 305ZM485 303L485 305L487 308L487 316L488 316L488 313L489 312L493 312L495 315L494 309L493 309L490 306L490 305L489 305L487 303ZM488 308L489 307L491 309L489 310ZM192 306L192 308L196 306L198 310L198 313L200 315L201 315L200 311L199 310L199 306L202 303L200 303L199 304L195 304ZM125 303L125 304L126 304L126 303ZM523 301L520 301L515 304L515 306L520 303L522 303L523 304L519 307L518 307L519 309L521 308L523 306L524 306L524 304L522 303ZM120 302L123 302L122 301ZM541 299L539 300L533 300L532 301L528 301L527 303L533 303L536 301L539 301L541 300ZM621 295L623 296L623 298L624 299L623 296ZM173 296L170 293L168 293L165 296L165 299L166 299L166 298L169 295L170 295L172 297L173 297ZM532 287L530 289L530 292L531 294L532 294L532 290L533 289L534 290L534 293L535 295L536 295L535 289L533 287ZM414 285L413 284L410 285L406 289L406 290L407 290L410 287ZM397 283L393 283L392 284L390 284L389 286L395 285L397 284ZM387 281L388 282L391 282L395 280L388 280ZM427 279L403 280L402 281L403 282L407 282L408 281L420 281L421 280L426 280ZM136 279L134 281L134 283L133 284L134 286L133 288L134 289L134 293L137 293L138 295L139 295L143 293L142 293L141 291L139 292L138 291L138 288L144 285L142 285L139 287L138 285L142 282L143 282L143 281L141 281L139 279ZM137 286L138 288L137 289L137 291L135 292L134 291L134 289L135 287ZM140 280L141 281L136 285L135 284L135 282L137 280ZM357 278L356 279L353 279L351 281L352 283L351 284L351 287L353 291L359 288L359 287L356 287L355 288L353 287L354 285L358 283L358 282L356 282L355 281L356 280L358 280ZM368 277L362 278L362 284L363 285L363 289L364 290L365 290L367 288L369 288L369 287L366 287L365 286L365 284L368 282L368 281L366 281L365 280L369 278ZM160 282L160 286L163 288L169 286L171 289L172 288L178 287L182 285L180 285L179 286L176 286L175 285L175 279L178 277L171 277L170 278L170 279L172 279L174 282L174 285L172 287L170 287L169 286L170 285L166 286L165 287L162 285L162 282L163 281L163 278L162 277L161 278L161 281ZM511 277L515 277L518 275L511 275ZM181 275L181 276L187 281L187 285L184 289L186 289L188 287L188 285L189 284L188 280L185 277ZM155 274L153 275L152 277L153 278L153 280L152 281L152 285L151 286L152 287L152 290L155 293L157 293L158 294L160 293L158 293L155 291L154 289L154 284L156 280L155 279L158 276L159 276L159 275L158 274ZM153 277L154 276L156 277L155 278ZM204 273L202 273L198 275L198 282L199 283L199 286L200 287L200 283L202 281L207 279L206 278L202 280L200 279L200 276L203 274L205 276L205 274ZM480 271L479 273L480 274L480 281L481 283L481 281L483 279L485 279L486 278L489 281L489 279L485 275L485 274L483 272ZM481 275L482 274L484 276L482 277ZM230 271L229 271L227 273L227 275L226 276L226 281L227 279L229 277L230 277L231 275L233 279L234 278L233 274ZM230 273L231 275L229 276L228 275ZM221 271L218 271L215 273L215 284L216 285L220 284L220 283L218 284L216 283L216 280L217 279L216 274L219 272L221 273ZM543 270L523 271L521 272L521 273L523 274L524 273L530 273L531 272L536 272L537 271L542 271ZM507 271L508 272L515 272L516 271L512 271L511 270L508 270ZM241 270L237 270L236 271L236 273L237 274L236 275L237 277L236 281L237 282L241 280L239 280L238 279L238 278L240 276L241 276L238 274L238 272L239 271L242 271ZM245 269L245 271L247 272L249 271L250 272L250 278L246 282L246 283L247 283L250 281L252 273L250 270L248 269ZM489 271L489 274L492 278L494 279L498 279L500 278L500 273L495 268L493 268ZM491 272L493 270L495 270L499 274L499 276L498 277L493 277L491 275ZM279 267L273 270L276 272L276 277L277 276L278 270L279 269L281 269L281 268ZM267 267L266 267L266 272L265 273L263 272L263 270L262 269L260 272L260 278L261 278L261 276L263 274L267 276L267 271L268 270L268 268ZM599 260L598 261L598 264L601 264L602 263L601 262L601 260ZM533 262L533 258L532 257L532 259L530 262L528 262L525 258L523 258L524 261L525 261L530 266ZM395 254L389 255L388 257L391 257L395 255ZM425 252L418 252L417 253L400 253L400 254L401 255L407 255L408 254L420 254L421 253L425 253ZM384 253L386 254L390 252L393 252L392 251L386 251L384 252ZM195 251L193 252L192 254L191 254L191 262L192 263L192 266L193 265L193 259L194 258L198 258L201 256L201 254ZM194 257L194 254L195 253L197 253L200 255L198 257L196 257L195 258ZM368 248L367 250L367 260L369 263L370 262L369 260L373 257L375 258L375 260L376 261L376 257L375 256L374 252L372 250L372 249ZM369 253L371 252L373 254L373 255L372 256L370 256L369 255ZM355 248L353 251L353 255L352 256L352 263L353 262L353 259L357 256L358 256L361 260L361 255L358 252L357 249ZM355 253L356 252L357 254L356 255ZM178 248L177 249L176 254L174 255L176 259L174 260L174 262L182 262L183 261L186 261L189 259L188 260L183 260L182 261L179 261L177 259L178 257L181 258L181 257L184 255L182 256L179 256L178 255L179 254L181 254L185 251L185 250L182 248ZM180 250L182 249L183 251L181 252ZM142 248L143 250L143 253L142 254L142 260L143 261L147 262L148 264L151 264L152 263L155 263L156 261L158 260L157 260L153 263L150 263L149 262L154 259L152 260L149 260L148 259L150 257L155 256L150 256L149 255L151 254L152 252L156 252L154 251L150 251L146 253L145 252L145 250L146 249L154 249ZM146 254L148 255L148 257L147 258L148 259L147 260L145 260L143 257ZM161 247L160 251L159 252L159 255L161 259L164 262L170 263L170 262L167 262L165 261L163 258L163 254L165 251L165 249L163 252L163 256L162 257L161 256L161 250L162 249L162 247ZM630 246L630 248L631 248L635 252L635 255L636 257L637 256L636 255L637 254L636 253L637 252L637 250L640 247L640 246ZM248 247L246 246L246 248L247 249L246 251L245 251L241 248L239 248L238 250L239 251L238 253L239 255L240 254L240 251L241 250L248 254L249 253L248 251L249 250L248 249ZM618 250L619 253L621 253L622 254L629 254L632 252L630 253L625 253L624 252L621 252L620 251L622 250L623 248L626 247L625 245L622 246ZM599 246L598 250L601 254L599 256L599 257L603 257L605 254L606 255L606 258L608 259L608 256L613 249L613 246L611 245L609 246L609 247L605 250L604 249L604 245L601 245ZM603 250L604 252L602 253L601 252ZM603 250L604 249L605 250L604 251ZM601 248L602 249L602 251L601 252L600 251L600 249ZM601 248L602 247L603 248L602 249ZM264 245L261 245L260 246L252 248L252 249L254 249L258 247L259 248L258 254L257 255L257 259L258 259L258 256L259 255L261 247ZM226 246L226 247L224 249L223 257L228 253L232 253L233 254L233 257L234 257L234 253L231 247L229 245ZM228 247L231 250L230 252L227 252L226 251L226 249ZM218 243L217 243L216 245L216 248L212 250L211 249L212 243L210 244L210 248L209 249L209 259L210 252L214 250L216 251L216 257L217 255L217 251L219 248L219 245ZM506 244L508 245L509 244L511 244L512 242L508 242L506 243ZM408 242L409 247L410 249L411 249L411 244L410 242ZM503 241L506 241L507 240L511 240L513 239L512 238L507 238L506 239L504 239ZM473 240L475 242L473 246L474 247L473 248L474 250L476 246L479 246L480 245L481 245L483 247L483 248L484 248L483 244L477 238L475 238ZM477 243L478 242L479 243L478 244ZM9 237L9 239L10 239ZM535 236L534 237L522 237L521 239L522 240L524 240L525 239L529 239L530 238L533 238L535 237ZM486 236L485 238L487 241L488 247L490 248L494 247L495 245L490 245L489 244L489 243L490 242L492 242L493 240L489 240L488 239L489 238L492 238L493 237L491 236ZM625 237L622 234L620 236L619 239L621 239ZM599 233L599 237L601 241L601 234ZM430 234L432 234L433 233L431 233ZM341 230L344 231L343 230ZM325 230L323 229L321 230L321 231L322 230ZM318 229L319 231L319 229ZM327 228L327 230L332 230L328 230ZM473 227L472 225L468 226L468 228L471 228ZM521 228L523 229L526 226L527 226L529 228L530 228L530 227L527 224L525 224ZM39 215L42 217L42 219L44 219L44 215ZM198 204L200 206L201 206L202 205L210 204L210 203L199 203ZM282 198L281 198L280 202L278 205L278 207L276 210L278 209L279 205L282 201ZM194 199L196 201L198 201L199 200L206 200L207 199L206 198L195 198ZM405 196L405 197L406 197L406 196ZM211 196L212 198L214 198L219 201L219 202L217 203L217 205L220 203L220 200L219 199L213 196ZM245 193L244 194L244 200L245 200L246 198L250 200L246 202L243 202L244 203L248 203L249 202L251 202L253 200L251 198L249 198L248 197L248 196L250 195L251 193ZM173 193L171 194L171 198L170 199L170 201L171 202L170 204L172 205L173 203L171 202L172 201L172 195ZM590 201L587 198L585 198L582 200L580 200L581 202L586 202L587 203L582 206L580 206L576 203L576 199L577 197L583 194L582 192L579 192L575 196L573 200L568 196L565 196L562 199L564 203L564 207L565 208L564 209L565 210L569 209L572 206L574 202L577 206L579 207L583 207L585 206L587 203L588 204L588 206L589 206L589 202ZM567 197L570 198L572 200L572 203L568 208L566 208L565 207L565 203L564 202L564 199ZM177 191L178 192L178 195L177 196L177 199L176 201L178 205L179 205L184 209L187 209L187 208L186 208L181 204L182 203L182 200L183 199L183 195L182 194L182 199L181 200L181 203L180 204L178 202L178 195L179 194L179 191ZM256 190L256 202L258 203L265 202L266 201L259 201L258 200L258 195L257 194L257 191ZM567 188L564 191L560 189L560 191L561 191L564 194L566 194L567 192ZM370 187L367 187L366 188L361 188L360 189L358 189L358 190L361 190L362 189L365 189L366 188L370 188ZM141 188L141 193L139 200L140 201L140 197L142 193L146 194L148 197L146 199L143 199L143 200L147 201L146 205L147 200L149 198L151 198L154 201L153 203L149 204L154 204L156 202L156 199L160 198L161 202L159 204L161 205L160 206L161 207L161 204L164 202L166 202L167 205L168 205L167 204L168 202L166 199L167 189L166 189L164 194L163 192L160 194L157 188L155 187L154 192L155 197L151 198L150 195L152 191L148 193L144 193L143 191L146 186ZM162 198L163 197L166 201L165 202L163 202L162 201ZM157 192L160 196L159 198L157 198L155 196ZM298 190L298 193L299 194L302 194L303 195L313 195L307 195L306 194L304 194L300 192L302 190L304 190L306 188L308 188L309 187L309 185L306 185L300 188ZM369 184L363 184L362 185L357 185L356 186L354 186L356 187L357 186L361 186L362 185L367 185ZM317 184L316 185L316 195L317 195L317 193L319 191L321 191L323 195L324 195L322 191L324 190L322 190L319 186L319 185ZM318 189L319 188L320 189L319 190ZM343 183L339 184L338 185L330 185L329 186L327 186L327 187L329 188L333 186L335 188L335 195L336 195L336 187L338 185L343 184ZM246 183L246 187L247 189L248 189L248 185L247 183ZM374 182L374 183L377 183L381 186L381 189L379 191L380 191L382 189L382 186L378 182ZM402 178L399 179L393 184L393 187L394 188L399 188L400 189L402 188L405 188L399 188L398 187L395 187L394 186L394 185L398 181L400 180L403 180ZM542 177L541 178L541 182L543 179ZM409 175L409 183L410 184L410 186L414 186L415 185L412 185L410 182L411 181L410 180L410 177L414 175ZM495 174L494 175L489 175L488 176L485 176L485 177L490 177L491 176L495 175ZM435 174L433 175L433 177L435 179L436 184L438 184L439 183L437 183L436 181L439 179L438 178L437 179L435 177L435 176L436 175L438 175L438 174ZM426 174L424 174L422 176L422 186L422 183L426 180L428 180L430 182L430 183L431 183L428 176ZM424 176L425 175L428 178L427 179L425 179L424 178ZM442 173L442 174L446 174L449 177L449 183L447 185L447 186L450 185L451 184L451 181L450 180L450 174L449 173ZM457 174L456 175L457 176L461 174L463 175L463 181L464 182L464 176L465 174L467 173L467 172ZM482 173L487 173L488 172L492 172L493 171L486 171ZM497 168L497 170L503 170L504 171L504 173L501 176L501 177L502 177L505 174L506 174L506 171L504 169ZM610 165L605 166L603 168L605 169L607 167L610 166ZM512 171L513 170L516 172L523 172L521 171L517 171L515 169L515 168L519 166L519 165L516 165L513 168L513 170ZM552 164L552 167L554 171L554 174L562 171L564 168L563 166L559 163L553 163ZM553 165L554 164L558 164L560 165L562 167L562 168L559 171L555 172L554 171L554 167ZM610 162L599 163L599 165L600 164L610 163ZM24 162L23 162L22 164L23 164ZM567 163L567 168L569 170L574 170L577 168L576 164L575 164L573 162L569 161ZM570 163L572 163L575 166L575 167L573 169L572 168L571 169L568 167L568 165ZM523 163L523 165L527 164L529 166L530 170L531 171L531 168L529 164L531 162L530 161L529 162L525 162ZM429 164L426 161L423 165L423 166L424 166L426 164L427 164L428 166L429 166ZM615 159L614 160L615 161L618 161L620 163L620 166L619 167L621 167L622 163L619 160ZM582 159L579 162L580 166L584 169L588 169L588 168L585 168L584 167L588 165L590 167L590 173L591 174L591 165L590 164L585 164L584 163L586 162L586 160L585 159ZM583 161L584 163L582 166L581 165L581 163ZM513 155L513 159L514 159L515 157L518 160L519 160L519 159L515 155ZM633 154L628 154L627 155L625 155L625 156L628 160L628 163L629 163L629 158L628 157L630 155L633 155L635 157L635 159L629 166L630 167L636 160L636 157L635 155ZM716 153L709 154L707 155L707 156ZM716 150L708 151L706 152L706 153L710 151ZM140 158L142 159L146 157L148 160L146 163L149 165L151 162L153 162L155 166L155 170L156 169L156 163L157 162L159 162L161 159L165 162L165 166L166 167L166 164L167 163L174 168L174 167L170 164L172 161L172 159L171 158L169 158L167 160L165 160L163 158L165 156L165 154L166 153L166 152L163 150L159 150L163 152L161 154L159 154L159 158L157 161L151 161L150 160L150 158L151 157L153 157L153 156L147 156L146 157L142 157ZM169 159L170 161L168 163L167 161ZM161 156L162 155L163 156L162 157ZM162 155L163 154L164 155L163 156ZM644 149L639 154L639 155L641 157L642 162L644 163L647 163L647 162L645 162L642 159L642 156L641 155L641 154L645 151ZM154 145L154 146L156 146L160 148L158 146ZM208 141L210 142L212 141L215 141L216 142L217 141ZM652 137L651 137L649 140L647 138L646 138L646 139L649 142L650 142ZM204 137L204 138L206 138L207 139L208 138L210 139L215 139L217 138L207 138L206 137ZM315 135L316 136L319 136L322 139L324 139L325 138L331 138L331 137L329 136L328 134L319 134L318 135ZM422 133L418 133L414 135L417 135L418 134ZM260 133L257 133L256 134L255 133L254 134L243 134L243 135L250 135L251 136L251 140L250 141L251 146L252 136L254 134L260 134ZM286 132L286 134L291 135L293 137L293 139L292 140L292 142L293 143L293 140L294 139L294 133L293 133L293 134L291 135ZM278 132L278 135L275 140L275 142L277 139L279 139L280 138L282 138L286 142L286 141L282 137L280 133ZM278 136L279 135L281 137L279 138ZM218 132L217 133L220 134L221 136L224 136L225 137L223 139L220 140L224 139L225 140L223 142L224 142L227 139L227 138L222 133ZM224 139L225 138L227 139L226 140ZM332 131L332 132L336 135L336 136L333 139L335 140L338 138L338 136L335 132ZM275 131L273 131L271 133L271 139L270 140L271 142L270 143L269 143L264 138L268 136L267 133L265 133L264 132L263 134L263 139L262 140L262 143L263 143L263 141L265 140L268 143L269 143L271 146L273 146L273 145L271 144L272 142L272 134L274 132L275 132ZM359 130L357 131L356 130L354 130L354 139L355 140L355 133L357 131L359 131ZM412 131L414 131L415 130L419 130L420 129L415 129L414 130L412 130ZM361 131L363 139L363 137L364 136L369 137L371 139L370 137L367 136L365 134L367 131L366 129L364 129ZM363 132L364 131L365 132L364 133ZM297 129L298 130L300 130L302 134L302 140L299 142L300 143L301 142L303 142L304 140L303 139L303 131L301 129ZM375 128L373 129L373 134L376 138L378 138L379 137L376 137L374 134L374 131L375 130L377 130L377 128ZM441 127L439 127L438 128L437 127L435 127L431 129L434 129L436 131L436 134L437 134L437 129L438 128L441 128ZM381 127L386 130L388 130L387 130L383 127ZM393 126L392 128L396 128L397 129L397 132L398 133L398 135L394 137L395 138L399 137L398 128L397 127ZM271 127L272 126L274 126L271 126ZM141 131L151 129L152 133L147 135L150 135L150 138L153 134L157 134L156 142L163 134L167 138L167 142L169 139L173 143L170 137L177 132L179 134L178 141L184 134L187 143L192 134L196 137L192 148L199 134L214 136L198 132L196 136L192 133L193 128L190 131L184 127L190 132L187 141L185 133L182 132L181 134L179 128L176 126L174 131L169 133L167 137L163 133L168 129L168 126L164 127L162 132L157 134L153 133L153 130L157 128ZM169 135L170 134L171 135L170 136ZM170 134L171 133L172 134L171 135ZM159 134L160 133L161 134L160 135ZM177 128L179 130L178 132L176 132L175 131L175 130ZM164 129L165 128L166 129L165 130ZM444 126L443 128L443 132L444 133L444 135L445 135L446 133L450 135L446 132L446 131L448 129L447 125ZM445 128L446 127L447 128L446 129ZM436 118L436 120L442 123L440 122ZM330 112L332 114L335 113L335 112ZM275 109L281 109L282 108L275 108ZM668 106L667 105L665 106ZM325 106L327 108L334 108L335 107L337 108L337 107L334 105L328 105L327 106ZM301 105L301 107L303 106L305 106L306 107L305 109L305 113L306 113L307 109L308 108L307 105L305 104ZM295 104L294 104L294 107L293 108L293 111L292 112L293 113L295 109ZM265 104L264 105L265 107L265 114L266 113L266 105ZM244 105L245 106L249 106L250 107L247 113L248 114L252 114L252 113L250 112L250 111L252 109L252 106L250 104L246 104ZM363 102L357 102L357 103L354 105L354 108L358 110L357 112L355 112L355 114L358 114L362 112L362 110L360 108L358 108L357 107L361 104L363 104L364 103ZM688 100L687 101L685 101L687 101L688 102L686 103L688 102ZM680 100L682 102L682 101ZM706 98L707 99L709 98ZM686 94L685 95L686 95L687 96L686 97L687 97L687 94ZM686 89L683 90L686 90ZM685 83L684 83L682 85L680 85L682 87L685 85ZM308 81L307 82L308 82ZM683 78L682 78L680 80L676 80L674 79L678 81L679 80L682 81ZM672 75L673 74L674 76L677 74L679 74L672 74ZM669 74L667 76L667 78L670 82L672 82L670 82L668 80L668 75ZM492 75L493 76L499 76L499 75L496 75L495 73L496 72L500 72L500 71L495 71L494 72L495 73ZM294 72L294 73L298 73L299 74L299 78L300 77L300 75L302 73L302 71ZM467 71L467 72L472 72L473 73L470 75L470 77L478 77L482 75L481 74L477 75L476 74L477 73L477 71L476 70L468 70ZM461 69L459 69L458 71L454 69L451 69L451 70L455 71L457 73L457 75L455 79L455 83L457 79L457 77ZM512 68L512 76L513 76L513 72L514 71L514 69ZM446 68L445 68L441 72L440 74L438 72L438 71L436 69L435 69L435 70L438 73L440 78L443 72L446 69ZM429 68L427 68L426 69L421 69L420 70L420 71L422 71L423 70L425 71L425 77L426 77L427 71L429 69ZM308 68L309 70L308 71L308 76L309 76L309 75L312 73L313 74L313 76L314 76L314 75L317 71L316 68L315 68L313 72L311 72L310 71L310 69ZM519 68L519 70L523 70L524 69L525 70L524 72L521 72L520 73L521 75L523 75L524 76L524 79L525 79L525 77L527 75L527 69L526 67L522 67L521 68ZM381 67L380 67L380 71L379 72L377 71L376 69L375 69L374 71L374 76L375 78L376 74L377 73L381 76L382 76L382 68ZM369 67L367 68L366 70L364 68L360 68L360 74L362 76L362 77L363 76L362 74L364 71L367 75L368 75L369 73L371 75L371 76L372 75L372 71ZM296 67L292 68L289 71L290 74L293 75L291 73L291 71L293 69L297 68ZM287 67L279 67L279 71L278 72L277 77L278 77L278 75L280 73L282 73L283 72L287 72L287 71L283 71L282 72L280 71L280 70L282 68L286 68ZM398 67L398 76L399 77L399 75L400 74L403 75L406 78L407 78L408 76L414 76L415 75L415 74L411 71L412 69L414 69L415 68L413 67L409 69L409 71L413 74L412 75L408 75L407 77L401 72L403 70L403 67L402 66ZM391 66L387 67L387 72L386 73L386 77L387 78L388 74L394 71L394 68ZM347 66L347 75L350 78L353 78L354 77L353 75L350 75L349 74L350 73L350 68L348 66ZM336 66L336 75L338 76L338 74L339 73L341 75L343 75L344 76L343 73L341 72L341 71L343 70L342 67L338 68ZM329 66L322 66L323 68L325 68L326 69L326 72L323 75L319 75L318 74L318 76L320 77L322 76L326 76L328 74L328 68ZM270 65L264 65L264 70L263 71L264 74L262 75L264 77L268 76L272 73L273 71L273 68ZM270 67L271 68L271 71L268 74L266 74L265 73L266 69L268 67ZM248 65L248 73L250 74L250 76L251 75L252 76L256 76L259 74L259 72L257 70L257 67L255 65L255 64L252 64L253 65L252 67L251 67L250 65ZM255 74L256 73L257 74L256 75ZM251 71L253 70L255 72L254 73L252 73ZM250 69L251 70L251 72L250 73L248 71ZM253 68L254 67L256 68L255 69ZM151 64L151 65L153 65L154 66L152 70L154 70L155 71L156 70L158 70L159 71L159 73L157 74L157 75L161 75L159 74L159 72L162 68L157 68L155 69L154 68L155 67L155 65L157 64L157 63ZM791 53L794 53L795 52L792 52ZM166 53L165 52L158 58L160 58L162 56L166 54ZM642 52L642 53L644 52L647 53L646 51L643 51ZM783 50L784 51L785 50ZM778 50L778 52L779 51ZM798 49L797 51L798 51ZM161 48L158 48L158 49L156 50L154 52L154 53L160 50ZM770 47L770 48L773 48ZM778 44L777 45L778 46L779 45ZM765 43L764 43L762 45L765 44ZM154 41L161 41L162 42L164 42L165 41L167 41L168 42L221 42L220 41L192 41L191 42L187 42L186 41ZM771 40L770 40L771 41L769 43L770 44ZM590 37L589 37L589 39L587 42L581 38L578 38L580 40L583 40L587 44L587 47L586 48L585 55L586 55L588 46L590 44L589 43L590 41ZM631 36L631 38L632 39L634 39L635 38L634 36ZM150 36L150 37L164 37L165 38L179 38L180 39L212 39L213 38L218 38L179 38L178 37L176 38L175 37ZM599 37L599 38L601 38L602 37L608 37L609 38L605 42L599 45L599 47L600 48L602 47L612 47L613 46L619 46L620 45L609 45L608 46L604 46L603 45L605 43L608 42L611 39L611 37L607 35L602 35ZM335 36L336 38L338 37L341 37L342 36L345 36L346 35L348 36L346 40L345 45L344 46L344 49L345 49L347 45L347 43L349 40L349 38L350 37L349 34L344 34L343 35L340 35L339 36ZM789 33L787 33L786 35L788 35ZM644 32L644 34L646 35L645 38L646 39L649 39L649 34L648 33ZM646 34L647 33L648 34L647 35ZM558 32L558 34L560 36L564 37L565 38L562 42L563 44L567 40L569 40L571 42L575 44L574 42L573 42L568 38L569 37L569 33L568 33L568 35L566 37ZM554 32L554 37L552 40L551 40L549 38L548 35L547 35L545 38L543 37L542 34L541 35L541 37L545 45L546 45L546 42L548 39L552 43L554 43L555 41L555 33ZM534 32L531 35L528 41L526 40L524 36L522 36L523 39L525 40L527 45L529 47L530 45L530 42L535 35L534 34ZM517 33L513 34L512 32L510 32L510 33L508 35L506 35L505 36L501 36L500 37L501 38L505 38L506 37L508 38L508 41L506 45L506 49L508 46L508 44L509 43L510 39L512 37L516 36L514 35ZM497 32L492 32L489 35L490 37L495 41L493 43L491 43L490 44L488 43L487 44L488 45L495 44L497 42L496 40L495 40L491 36L492 34L494 33L497 33ZM440 32L439 33L439 35L438 36L438 40L437 41L434 39L434 35L433 35L433 36L431 38L432 39L432 41L431 42L431 46L432 46L432 42L434 40L439 43L439 38L440 37L440 34L441 33ZM416 32L415 33L415 40L416 41L416 43L417 41L417 36L418 35L419 36L420 40L421 41L422 40L421 39L421 37L422 35L424 34L425 35L425 41L426 42L426 44L427 44L427 38L426 37L426 34L424 32L420 34L418 32ZM454 31L450 31L447 34L447 37L445 40L446 42L446 47L447 47L447 41L453 38L456 35L456 33ZM453 32L455 34L449 39L448 38L449 34L451 32ZM793 30L792 32L795 33L796 31L795 30ZM481 30L479 30L476 32L476 42L477 43L477 50L478 52L479 51L478 49L478 44L479 43L480 43L487 49L488 49L488 48L483 43L482 43L478 40L480 38L482 34ZM479 32L480 33L480 35L479 36L478 35L478 33ZM463 30L459 38L459 42L461 44L461 45L463 45L464 46L466 45L468 47L469 50L471 51L468 45L469 41L470 40L470 36L469 35L469 33L466 30ZM463 34L464 35L464 37L466 41L466 43L465 44L463 44L461 42L461 37ZM466 31L469 37L469 39L468 40L466 39L466 36L465 35L465 32ZM365 30L364 31L364 34L363 35L361 35L360 34L361 33L360 30L358 31L358 33L357 34L357 44L358 44L358 42L360 38L362 38L363 39L363 43L365 42L365 38L367 35L367 32ZM361 37L362 36L363 37L362 38ZM402 29L402 32L400 36L400 39L401 41L405 43L410 43L411 42L410 41L409 42L408 41L404 41L402 39L403 35L404 34L404 31L403 29ZM390 29L390 34L389 35L389 42L392 46L391 43L393 41L394 41L392 37L396 35L395 33L393 32L391 29ZM378 29L377 30L372 30L371 31L372 33L374 33L375 32L377 34L377 40L376 42L372 46L370 46L371 46L372 48L376 47L378 45L379 41L380 40L379 39L379 32L378 31L380 30ZM372 47L373 46L375 47L374 48ZM377 43L378 44L375 47L374 45L376 43ZM374 31L375 30L376 31L375 32ZM176 30L180 30L181 29L183 29L177 29ZM337 28L335 30L334 30L334 31L332 33L332 36L331 37L335 42L341 43L341 42L336 41L333 38L333 35L334 33L339 29L339 28ZM327 27L324 27L323 28L323 31L322 32L322 35L321 36L322 38L322 42L321 43L322 44L322 47L322 44L323 43L323 38L329 35L324 35L323 34L324 30L325 29L328 29L329 28ZM314 28L312 27L308 27L307 28L303 28L302 29L302 30L304 29L305 30L305 34L304 35L305 36L306 36L306 33L307 32L307 29L308 28L311 28L315 30L314 34L311 37L310 37L305 41L302 42L302 43L305 43L309 41L316 34L317 32ZM215 28L207 32L206 30L211 27L209 27L204 30L206 31L207 33L209 33ZM173 26L174 27L176 26L180 26ZM165 26L165 29L164 30L165 31L166 29L166 27ZM187 25L188 25L194 31L195 31L194 29L190 25L188 24ZM292 30L290 28L286 28L285 29L283 29L280 32L280 34L279 35L276 32L281 26L281 24L279 23L275 24L273 26L273 30L272 31L272 43L273 44L273 43L275 41L277 41L282 37L285 39L287 39L285 38L282 35L282 34L287 30L290 30L291 31L292 31ZM274 35L276 34L278 36L278 37L276 39L274 37ZM274 26L275 25L277 26L276 27ZM162 23L161 23L161 27L163 24ZM175 10L176 14L177 14L179 16L183 16L183 12L181 10L180 10L181 12L179 14L178 12L177 12L176 10ZM179 15L180 14L182 15L181 16ZM181 14L182 13L183 14L182 15ZM204 11L207 15L209 15L210 16L213 16L216 14L214 10L212 9L205 9ZM211 15L212 14L214 15L213 16ZM213 14L214 13L215 14L214 15ZM207 12L208 11L212 11L213 12L211 14L209 14ZM190 9L188 11L188 15L189 15L191 17L192 16L195 16L193 12L194 10L193 9ZM791 0L792 1L795 1L796 0Z" fill="#111" fill-rule="evenodd"/></g></svg>